<?xml version="1.0" encoding="UTF-8"?>
<svg id="Layer_1" data-name="Layer 1" xmlns="http://www.w3.org/2000/svg" viewBox="0 0 1018.85 125.15">
  <defs>
    <style>
      .cls-1 {
        letter-spacing: 0em;
      }

      .cls-2 {
        fill: #fbbc04;
      }

      .cls-3 {
        fill: #4285f4;
      }

      .cls-4 {
        font-family: GoogleSansDisplay-Regular, 'Google Sans Display';
        font-size: 43.01px;
      }

      .cls-5 {
        letter-spacing: 0em;
      }

      .cls-6 {
        letter-spacing: 0em;
      }

      .cls-7 {
        fill: #34a853;
      }

      .cls-8 {
        letter-spacing: -.01em;
      }

      .cls-9 {
        letter-spacing: 0em;
      }

      .cls-10 {
        letter-spacing: -.01em;
      }

      .cls-11 {
        fill: #ea4335;
      }

      .cls-12 {
        letter-spacing: 0em;
      }
    </style>
  </defs>
  <g>
    <g>
      <path d="M159.62,48.69c-3.5-2-6.26-4.76-8.28-8.28-2.02-3.52-3.04-7.4-3.04-11.66s1.01-8.14,3.04-11.66c2.03-3.52,4.79-6.28,8.28-8.28,3.5-2,7.31-3.01,11.44-3.01,3.23,0,6.27,.57,9.11,1.72,2.84,1.14,5.18,2.76,7.02,4.85l-3.74,3.74c-1.39-1.72-3.18-3.04-5.37-3.96-2.19-.92-4.53-1.38-7.03-1.38-3.07,0-5.94,.75-8.62,2.24-2.68,1.5-4.83,3.6-6.44,6.32-1.62,2.72-2.42,5.86-2.42,9.42s.81,6.7,2.42,9.42c1.62,2.72,3.76,4.83,6.44,6.32,2.68,1.5,5.56,2.24,8.62,2.24s5.41-.46,7.39-1.38,3.71-2.14,5.19-3.65c1.06-1.14,1.92-2.54,2.58-4.17,.65-1.64,1.04-3.41,1.17-5.34h-16.2v-4.85h21.11c.21,1.15,.31,2.21,.31,3.19,0,2.7-.43,5.33-1.29,7.89-.86,2.56-2.23,4.8-4.11,6.72-4.13,4.38-9.51,6.56-16.14,6.56-4.13,0-7.95-1-11.44-3.01Z"/>
      <path d="M204.07,49.58c-2.37-1.41-4.22-3.35-5.55-5.83-1.33-2.47-1.99-5.22-1.99-8.25s.66-5.78,1.99-8.25c1.33-2.48,3.18-4.42,5.55-5.83,2.37-1.41,5.05-2.12,8.04-2.12s5.68,.7,8.07,2.12c2.39,1.41,4.25,3.35,5.58,5.83,1.33,2.48,1.99,5.22,1.99,8.25s-.67,5.78-1.99,8.25c-1.33,2.48-3.19,4.42-5.58,5.83-2.39,1.41-5.08,2.11-8.07,2.11s-5.66-.7-8.04-2.11Zm13.19-4.02c1.6-.94,2.87-2.28,3.84-4.02,.96-1.74,1.44-3.75,1.44-6.04s-.48-4.3-1.44-6.04c-.96-1.74-2.24-3.08-3.84-4.02-1.59-.94-3.31-1.41-5.15-1.41s-3.5,.47-5.09,1.41c-1.59,.94-2.87,2.28-3.83,4.02-.96,1.74-1.44,3.75-1.44,6.04s.48,4.31,1.44,6.04c.96,1.74,2.24,3.08,3.83,4.02,1.6,.94,3.29,1.41,5.09,1.41s3.56-.47,5.15-1.41Z"/>
      <path d="M238.86,49.58c-2.37-1.41-4.22-3.35-5.55-5.83-1.33-2.47-1.99-5.22-1.99-8.25s.66-5.78,1.99-8.25c1.33-2.48,3.18-4.42,5.55-5.83,2.37-1.41,5.05-2.12,8.04-2.12s5.68,.7,8.07,2.12c2.39,1.41,4.25,3.35,5.58,5.83,1.33,2.48,1.99,5.22,1.99,8.25s-.67,5.78-1.99,8.25c-1.33,2.48-3.19,4.42-5.58,5.83-2.39,1.41-5.08,2.11-8.07,2.11s-5.66-.7-8.04-2.11Zm13.19-4.02c1.6-.94,2.87-2.28,3.84-4.02,.96-1.74,1.44-3.75,1.44-6.04s-.48-4.3-1.44-6.04c-.96-1.74-2.24-3.08-3.84-4.02-1.59-.94-3.31-1.41-5.15-1.41s-3.5,.47-5.09,1.41c-1.59,.94-2.87,2.28-3.83,4.02-.96,1.74-1.44,3.75-1.44,6.04s.48,4.31,1.44,6.04c.96,1.74,2.24,3.08,3.83,4.02,1.6,.94,3.29,1.41,5.09,1.41s3.56-.47,5.15-1.41Z"/>
      <path d="M272.18,62.31c-2.33-1.76-3.91-3.8-4.73-6.14l4.85-2.03c.61,1.8,1.71,3.26,3.28,4.39,1.57,1.12,3.45,1.69,5.62,1.69,3.23,0,5.71-.94,7.45-2.81s2.61-4.5,2.61-7.86v-3.25h-.25c-.98,1.56-2.39,2.85-4.23,3.87-1.84,1.02-3.93,1.53-6.26,1.53-2.58,0-4.97-.7-7.18-2.09-2.21-1.39-3.97-3.32-5.28-5.79-1.31-2.46-1.96-5.24-1.96-8.31s.65-5.85,1.96-8.31c1.31-2.46,3.07-4.39,5.28-5.79,2.21-1.4,4.6-2.09,7.18-2.09,2.33,0,4.42,.51,6.26,1.53,1.84,1.02,3.25,2.31,4.23,3.87h.25v-4.42h4.97v29.21c0,3.35-.66,6.2-1.96,8.53-1.31,2.33-3.1,4.07-5.37,5.21-2.27,1.14-4.84,1.72-7.7,1.72-3.68,0-6.69-.88-9.02-2.64Zm14.11-16.73c1.51-.92,2.73-2.25,3.65-3.98,.92-1.73,1.38-3.76,1.38-6.11s-.46-4.39-1.38-6.14-2.14-3.07-3.65-3.98-3.17-1.36-4.97-1.36-3.46,.46-4.97,1.39-2.73,2.25-3.65,3.98-1.38,3.76-1.38,6.11,.46,4.38,1.38,6.11c.92,1.73,2.14,3.05,3.65,3.98,1.51,.93,3.17,1.39,4.97,1.39s3.46-.46,4.97-1.39Z"/>
      <path d="M303.29,6.78h5.21V50.71h-5.21V6.78Z"/>
      <path d="M320.87,49.61c-2.31-1.39-4.12-3.31-5.43-5.77-1.31-2.46-1.96-5.24-1.96-8.35,0-2.94,.61-5.65,1.84-8.13,1.23-2.47,2.98-4.44,5.25-5.89,2.27-1.45,4.88-2.18,7.82-2.18s5.53,.66,7.76,1.99c2.23,1.33,3.93,3.2,5.12,5.62,1.19,2.41,1.78,5.2,1.78,8.35,0,.57-.04,.98-.12,1.23h-24.18c.08,2.29,.63,4.22,1.66,5.8,1.02,1.58,2.3,2.75,3.84,3.53s3.12,1.17,4.75,1.17c3.85,0,6.81-1.88,8.9-5.65l4.6,2.21c-1.31,2.45-3.12,4.43-5.43,5.92-2.31,1.49-5.08,2.24-8.31,2.24-2.94,0-5.57-.69-7.89-2.09Zm16.66-17.49c-.08-1.22-.43-2.45-1.04-3.68s-1.61-2.27-2.98-3.13c-1.37-.86-3.12-1.29-5.25-1.29-2.29,0-4.28,.74-5.95,2.21-1.68,1.47-2.74,3.44-3.19,5.89h18.41Z"/>
      <path d="M362.99,6.78h13.32c4.5,0,8.43,.93,11.78,2.79,3.35,1.86,5.93,4.45,7.73,7.76s2.7,7.12,2.7,11.41-.9,8.1-2.7,11.41-4.38,5.9-7.73,7.76c-3.35,1.86-7.28,2.79-11.78,2.79h-13.32V6.78Zm13.32,38.96c5.19,0,9.31-1.49,12.33-4.48s4.54-7.16,4.54-12.52-1.51-9.53-4.54-12.52-7.14-4.48-12.33-4.48h-8.1V45.74h8.1Z"/>
      <path d="M410.33,49.61c-2.31-1.39-4.12-3.31-5.43-5.77-1.31-2.46-1.96-5.24-1.96-8.35,0-2.94,.61-5.65,1.84-8.13,1.23-2.47,2.98-4.44,5.25-5.89,2.27-1.45,4.88-2.18,7.82-2.18s5.53,.66,7.76,1.99c2.23,1.33,3.94,3.2,5.12,5.62s1.78,5.2,1.78,8.35c0,.57-.04,.98-.12,1.23h-24.17c.08,2.29,.63,4.22,1.66,5.8,1.02,1.58,2.3,2.75,3.83,3.53,1.53,.78,3.12,1.17,4.76,1.17,3.84,0,6.81-1.88,8.9-5.65l4.6,2.21c-1.31,2.45-3.12,4.43-5.43,5.92s-5.08,2.24-8.31,2.24c-2.94,0-5.57-.69-7.88-2.09Zm16.66-17.49c-.08-1.22-.43-2.45-1.04-3.68s-1.6-2.27-2.98-3.13c-1.37-.86-3.12-1.29-5.25-1.29-2.29,0-4.28,.74-5.95,2.21-1.68,1.47-2.74,3.44-3.19,5.89h18.41Z"/>
      <path d="M433.74,20.28h5.65l9.33,24.3h.12l9.45-24.3h5.52l-12.46,30.43h-5.28l-12.33-30.43Z"/>
      <path d="M473.34,49.61c-2.31-1.39-4.12-3.31-5.43-5.77-1.31-2.46-1.96-5.24-1.96-8.35,0-2.94,.61-5.65,1.84-8.13,1.23-2.47,2.98-4.44,5.25-5.89,2.27-1.45,4.88-2.18,7.82-2.18s5.53,.66,7.76,1.99c2.23,1.33,3.93,3.2,5.12,5.62,1.19,2.41,1.78,5.2,1.78,8.35,0,.57-.04,.98-.12,1.23h-24.18c.08,2.29,.63,4.22,1.66,5.8,1.02,1.58,2.3,2.75,3.84,3.53s3.12,1.17,4.75,1.17c3.85,0,6.81-1.88,8.9-5.65l4.6,2.21c-1.31,2.45-3.12,4.43-5.43,5.92-2.31,1.49-5.08,2.24-8.31,2.24-2.94,0-5.57-.69-7.89-2.09Zm16.66-17.49c-.08-1.22-.43-2.45-1.04-3.68s-1.61-2.27-2.98-3.13c-1.37-.86-3.12-1.29-5.25-1.29-2.29,0-4.28,.74-5.95,2.21-1.68,1.47-2.74,3.44-3.19,5.89h18.41Z"/>
      <path d="M500.8,6.78h5.22V50.71h-5.22V6.78Z"/>
      <path d="M518.53,49.58c-2.37-1.41-4.22-3.35-5.55-5.83-1.33-2.47-1.99-5.22-1.99-8.25s.66-5.78,1.99-8.25c1.33-2.48,3.18-4.42,5.55-5.83,2.37-1.41,5.05-2.12,8.04-2.12s5.68,.7,8.07,2.12c2.39,1.41,4.25,3.35,5.58,5.83,1.33,2.48,1.99,5.22,1.99,8.25s-.67,5.78-1.99,8.25c-1.33,2.48-3.19,4.42-5.58,5.83-2.39,1.41-5.08,2.11-8.07,2.11s-5.66-.7-8.04-2.11Zm13.19-4.02c1.6-.94,2.87-2.28,3.84-4.02,.96-1.74,1.44-3.75,1.44-6.04s-.48-4.3-1.44-6.04c-.96-1.74-2.24-3.08-3.84-4.02-1.59-.94-3.31-1.41-5.15-1.41s-3.5,.47-5.09,1.41c-1.59,.94-2.87,2.28-3.83,4.02-.96,1.74-1.44,3.75-1.44,6.04s.48,4.31,1.44,6.04c.96,1.74,2.24,3.08,3.83,4.02,1.6,.94,3.29,1.41,5.09,1.41s3.56-.47,5.15-1.41Z"/>
      <path d="M546.95,20.28h4.97v4.48h.24c.98-1.55,2.39-2.85,4.23-3.9s3.97-1.56,6.38-1.56c2.62,0,5.03,.7,7.24,2.12,2.21,1.41,3.97,3.34,5.28,5.8,1.31,2.46,1.96,5.21,1.96,8.28s-.65,5.83-1.96,8.28c-1.31,2.46-3.07,4.39-5.28,5.8-2.21,1.41-4.62,2.11-7.24,2.11-2.42,0-4.55-.52-6.41-1.56s-3.26-2.36-4.2-3.96h-.24l.24,4.23v13.56h-5.21V20.28Zm20.03,25.28c1.53-.94,2.76-2.28,3.68-4.02,.92-1.74,1.38-3.75,1.38-6.04s-.46-4.3-1.38-6.04c-.92-1.74-2.15-3.08-3.68-4.02-1.53-.94-3.2-1.41-5-1.41s-3.47,.46-5,1.38-2.76,2.25-3.68,3.99c-.92,1.74-1.38,3.77-1.38,6.1s.46,4.32,1.38,6.08c.92,1.76,2.15,3.1,3.68,4.02s3.2,1.38,5,1.38,3.47-.47,5-1.41Z"/>
      <path d="M589.43,49.61c-2.31-1.39-4.12-3.31-5.43-5.77-1.31-2.46-1.96-5.24-1.96-8.35,0-2.94,.61-5.65,1.84-8.13,1.23-2.47,2.98-4.44,5.25-5.89,2.27-1.45,4.88-2.18,7.82-2.18s5.53,.66,7.76,1.99c2.23,1.33,3.93,3.2,5.12,5.62,1.19,2.41,1.78,5.2,1.78,8.35,0,.57-.04,.98-.12,1.23h-24.18c.08,2.29,.63,4.22,1.66,5.8,1.02,1.58,2.3,2.75,3.84,3.53s3.12,1.17,4.75,1.17c3.85,0,6.81-1.88,8.9-5.65l4.6,2.21c-1.31,2.45-3.12,4.43-5.43,5.92-2.31,1.49-5.08,2.24-8.31,2.24-2.94,0-5.57-.69-7.89-2.09Zm16.66-17.49c-.08-1.22-.43-2.45-1.04-3.68s-1.61-2.27-2.98-3.13c-1.37-.86-3.12-1.29-5.25-1.29-2.29,0-4.28,.74-5.95,2.21-1.68,1.47-2.74,3.44-3.19,5.89h18.41Z"/>
      <path d="M616.89,20.28h4.97v4.97h.25c.57-1.68,1.75-3.09,3.53-4.23,1.78-1.14,3.55-1.72,5.31-1.72,1.27,0,2.46,.2,3.56,.61v5.58c-1.11-.61-2.54-.92-4.3-.92-1.43,0-2.77,.42-4.02,1.26-1.25,.84-2.24,1.96-2.98,3.35-.74,1.39-1.11,2.91-1.11,4.55v16.98h-5.22V20.28Z"/>
      <path d="M657.36,50.32c-2.07-.92-3.89-2.27-5.46-4.05-1.57-1.78-2.71-3.94-3.4-6.47l4.97-2.03c.69,2.62,1.98,4.76,3.86,6.44,1.88,1.68,4.07,2.51,6.57,2.51s4.74-.68,6.5-2.05c1.76-1.37,2.64-3.24,2.64-5.62,0-2.04-.75-3.73-2.24-5.06s-3.94-2.57-7.33-3.71l-2.76-.98c-3.11-1.1-5.65-2.56-7.61-4.36s-2.94-4.29-2.94-7.48c0-2.09,.57-4.02,1.72-5.8,1.14-1.78,2.73-3.2,4.75-4.26s4.3-1.6,6.84-1.6,4.75,.47,6.66,1.41c1.9,.94,3.41,2.09,4.54,3.44s1.89,2.68,2.3,3.99l-4.85,2.09c-.45-1.56-1.39-2.94-2.82-4.14-1.43-1.21-3.33-1.81-5.71-1.81-2.25,0-4.17,.63-5.77,1.9-1.59,1.27-2.39,2.86-2.39,4.79,0,1.72,.67,3.12,2.02,4.2,1.35,1.08,3.4,2.1,6.14,3.04l2.82,.98c3.72,1.35,6.64,3.04,8.74,5.06,2.11,2.02,3.16,4.78,3.16,8.25,0,2.82-.73,5.19-2.18,7.12-1.45,1.92-3.28,3.33-5.49,4.23-2.21,.9-4.5,1.35-6.87,1.35-2.21,0-4.35-.46-6.41-1.38Z"/>
      <path d="M690.98,51.07c-1.04-.42-1.93-.98-2.67-1.69-.82-.79-1.42-1.72-1.81-2.78-.39-1.06-.58-2.32-.58-3.78V25.01h-5.4v-4.73h5.4V11.2h5.15v9.08h7.48v4.73h-7.48v16.57c0,1.76,.35,3.06,1.04,3.89,.69,.92,1.76,1.38,3.19,1.38,1.27,0,2.37-.29,3.31-.86v5.03c-.66,.24-1.28,.42-1.87,.52-.59,.1-1.38,.15-2.36,.15-1.23,0-2.36-.21-3.41-.62Z"/>
      <path d="M706.69,48.44c-1.94-2.17-2.92-5.17-2.92-9.02V20.28h5.21v18.29c0,5.6,2.52,8.41,7.55,8.41,1.68,0,3.18-.47,4.51-1.41,1.33-.94,2.35-2.17,3.07-3.68s1.07-3.11,1.07-4.79V20.28h5.15v30.43h-4.91v-4.54h-.24c-.9,1.56-2.26,2.86-4.08,3.93-1.82,1.06-3.77,1.59-5.86,1.59-3.76,0-6.62-1.08-8.56-3.25Z"/>
      <path d="M742.61,49.61c-2.21-1.39-3.97-3.32-5.28-5.8-1.31-2.48-1.96-5.25-1.96-8.31s.66-5.84,1.96-8.31c1.31-2.47,3.07-4.41,5.28-5.8,2.21-1.39,4.62-2.09,7.24-2.09,2.37,0,4.5,.52,6.38,1.56,1.88,1.04,3.29,2.34,4.23,3.9h.24l-.24-4.17V6.78h5.15V50.71h-4.91v-4.54h-.24c-.94,1.6-2.35,2.92-4.23,3.96-1.88,1.04-4.01,1.56-6.38,1.56-2.62,0-5.03-.69-7.24-2.09Zm13.04-4.02c1.53-.92,2.76-2.26,3.68-4.02,.92-1.76,1.38-3.78,1.38-6.08s-.46-4.37-1.38-6.1c-.92-1.74-2.15-3.07-3.68-3.99s-3.2-1.38-5-1.38-3.47,.47-5,1.41c-1.53,.94-2.76,2.28-3.68,4.02-.92,1.74-1.38,3.75-1.38,6.04s.46,4.31,1.38,6.04c.92,1.74,2.15,3.08,3.68,4.02,1.53,.94,3.2,1.41,5,1.41s3.47-.46,5-1.38Z"/>
      <path d="M778.05,49.61c-2.31-1.39-4.12-3.31-5.43-5.77-1.31-2.46-1.96-5.24-1.96-8.35,0-2.94,.61-5.65,1.84-8.13,1.23-2.47,2.98-4.44,5.25-5.89,2.27-1.45,4.88-2.18,7.82-2.18s5.53,.66,7.76,1.99c2.23,1.33,3.93,3.2,5.12,5.62,1.19,2.41,1.78,5.2,1.78,8.35,0,.57-.04,.98-.12,1.23h-24.18c.08,2.29,.63,4.22,1.66,5.8,1.02,1.58,2.3,2.75,3.84,3.53s3.12,1.17,4.75,1.17c3.85,0,6.81-1.88,8.9-5.65l4.6,2.21c-1.31,2.45-3.12,4.43-5.43,5.92-2.31,1.49-5.08,2.24-8.31,2.24-2.94,0-5.57-.69-7.89-2.09Zm16.66-17.49c-.08-1.22-.43-2.45-1.04-3.68-.61-1.23-1.61-2.27-2.98-3.13-1.37-.86-3.12-1.29-5.25-1.29-2.29,0-4.28,.74-5.95,2.21-1.68,1.47-2.74,3.44-3.19,5.89h18.41Z"/>
      <path d="M805.51,20.28h4.97v4.54h.25c.86-1.56,2.21-2.86,4.05-3.93,1.84-1.06,3.8-1.59,5.89-1.59,3.72,0,6.55,1.08,8.5,3.25,1.94,2.17,2.92,5.13,2.92,8.9v19.27h-5.15v-18.47c0-5.48-2.56-8.22-7.67-8.22-1.64,0-3.11,.47-4.42,1.41-1.31,.94-2.32,2.17-3.04,3.68-.72,1.51-1.07,3.11-1.07,4.79v16.81h-5.22V20.28Z"/>
      <path d="M845.67,51.07c-1.04-.42-1.93-.98-2.67-1.69-.82-.79-1.42-1.72-1.81-2.78-.39-1.06-.59-2.32-.59-3.78V25.01h-5.4v-4.73h5.4V11.2h5.15v9.08h7.48v4.73h-7.48v16.57c0,1.76,.35,3.06,1.04,3.89,.7,.92,1.76,1.38,3.19,1.38,1.27,0,2.37-.29,3.31-.86v5.03c-.66,.24-1.28,.42-1.87,.52-.59,.1-1.38,.15-2.36,.15-1.23,0-2.36-.21-3.4-.62Z"/>
      <path d="M881.16,48.69c-3.48-2-6.21-4.76-8.19-8.28-1.98-3.52-2.98-7.4-2.98-11.66s.99-8.14,2.98-11.66c1.98-3.52,4.72-6.28,8.19-8.28,3.47-2,7.32-3.01,11.53-3.01,3.31,0,6.33,.62,9.05,1.87s5.06,3.02,7.02,5.31l-3.68,3.62c-1.64-2.01-3.47-3.48-5.49-4.42-2.02-.94-4.33-1.41-6.9-1.41-3.15,0-6.05,.75-8.71,2.24-2.66,1.5-4.78,3.6-6.35,6.32-1.58,2.72-2.36,5.86-2.36,9.42s.79,6.7,2.36,9.42c1.57,2.72,3.69,4.83,6.35,6.32,2.66,1.5,5.56,2.24,8.71,2.24,5.36,0,9.9-2.19,13.62-6.56l3.74,3.68c-2.01,2.41-4.5,4.33-7.49,5.74-2.99,1.41-6.28,2.11-9.88,2.11-4.21,0-8.06-1-11.53-3.01Z"/>
      <path d="M915.15,6.78h5.21V50.71h-5.21V6.78Z"/>
      <path d="M930.03,48.44c-1.94-2.17-2.91-5.17-2.91-9.02V20.28h5.21v18.29c0,5.6,2.51,8.41,7.55,8.41,1.68,0,3.18-.47,4.51-1.41,1.33-.94,2.35-2.17,3.07-3.68,.72-1.51,1.07-3.11,1.07-4.79V20.28h5.15v30.43h-4.91v-4.54h-.25c-.9,1.56-2.26,2.86-4.08,3.93-1.82,1.06-3.77,1.59-5.86,1.59-3.76,0-6.62-1.08-8.56-3.25Z"/>
      <path d="M970.16,50.13c-1.86-1.04-3.26-2.36-4.2-3.96h-.24v4.54h-4.97V6.78h5.21v13.8l-.24,4.17h.24c.98-1.55,2.39-2.85,4.23-3.9s3.97-1.56,6.38-1.56c2.62,0,5.03,.7,7.24,2.12,2.21,1.41,3.97,3.34,5.28,5.8,1.31,2.46,1.96,5.21,1.96,8.28s-.66,5.83-1.96,8.28c-1.31,2.46-3.07,4.39-5.28,5.8-2.21,1.41-4.62,2.11-7.24,2.11-2.41,0-4.55-.52-6.41-1.56Zm10.62-4.57c1.53-.94,2.76-2.28,3.68-4.02,.92-1.74,1.38-3.75,1.38-6.04s-.46-4.3-1.38-6.04c-.92-1.74-2.15-3.08-3.68-4.02s-3.2-1.41-5-1.41-3.47,.46-5,1.38c-1.53,.92-2.76,2.25-3.68,3.99-.92,1.74-1.38,3.77-1.38,6.1s.46,4.32,1.38,6.08c.92,1.76,2.15,3.1,3.68,4.02,1.53,.92,3.2,1.38,5,1.38s3.47-.47,5-1.41Z"/>
      <path d="M998.54,49.24c-2.25-1.64-3.83-3.66-4.72-6.08l4.6-2.02c.82,1.92,1.97,3.39,3.47,4.42,1.49,1.02,3.12,1.53,4.88,1.53,1.96,0,3.59-.43,4.88-1.29,1.29-.86,1.93-1.9,1.93-3.13s-.48-2.17-1.44-2.94c-.96-.78-2.61-1.45-4.94-2.03l-4.17-1.04c-2.29-.53-4.24-1.49-5.86-2.88-1.62-1.39-2.42-3.23-2.42-5.52,0-1.88,.54-3.5,1.63-4.85,1.08-1.35,2.53-2.37,4.33-3.07,1.8-.7,3.76-1.04,5.89-1.04,2.62,0,5,.6,7.15,1.81,2.15,1.21,3.67,2.91,4.57,5.12l-4.6,1.96c-.66-1.47-1.65-2.56-2.98-3.25-1.33-.69-2.81-1.04-4.45-1.04s-3.04,.39-4.33,1.17c-1.29,.78-1.93,1.78-1.93,3.01,0,1.07,.42,1.9,1.26,2.52s2.18,1.17,4.02,1.66l4.54,1.1c3.03,.78,5.29,1.93,6.78,3.47s2.24,3.37,2.24,5.49c0,1.76-.51,3.35-1.53,4.79-1.02,1.43-2.46,2.56-4.3,3.38-1.84,.82-3.93,1.22-6.26,1.22-3.23,0-5.97-.82-8.22-2.45Z"/>
    </g>
    <g>
      <path class="cls-11" d="M28.84,29.42l19.67-11.36c4.63-2.67,6.21-8.59,3.54-13.22C49.37,.21,43.46-1.37,38.83,1.3L4.84,20.92l24,8.5Z"/>
      <path class="cls-3" d="M43.66,58.6c3.34,0,6.6-1.74,8.39-4.84,2.67-4.63,1.09-10.55-3.54-13.22L14.52,20.92c-4.63-2.67-10.55-1.09-13.22,3.54-2.67,4.63-1.09,10.55,3.54,13.22l33.99,19.62c1.52,.88,3.19,1.3,4.83,1.3Z"/>
      <path class="cls-2" d="M77.46,58.6c1.64,0,3.31-.42,4.83-1.3l33.99-19.62-23.69-8.67-19.97,11.53c-4.63,2.67-6.21,8.59-3.54,13.22,1.79,3.1,5.05,4.84,8.39,4.84Z"/>
      <path class="cls-7" d="M111.43,38.98c3.34,0,6.6-1.74,8.39-4.84,2.67-4.63,1.09-10.55-3.54-13.22L82.29,1.3c-4.63-2.67-10.55-1.09-13.22,3.54-2.67,4.63-1.09,10.55,3.54,13.22l33.99,19.62c1.52,.88,3.19,1.3,4.83,1.3Z"/>
    </g>
  </g>
  <text class="cls-4" transform="translate(328.26 114.27)"><tspan x="0" y="0">Guru </tspan><tspan class="cls-10" x="108.25" y="0">N</tspan><tspan x="138.01" y="0">a</tspan><tspan class="cls-5" x="160.46" y="0">n</tspan><tspan class="cls-6" x="184.08" y="0">ak I</tspan><tspan class="cls-5" x="248.2" y="0">ns</tspan><tspan class="cls-12" x="291.51" y="0">t</tspan><tspan class="cls-5" x="307.12" y="0">i</tspan><tspan class="cls-6" x="316.54" y="0">t</tspan><tspan class="cls-1" x="331.94" y="0">ut</tspan><tspan class="cls-9" x="371.59" y="0">i</tspan><tspan class="cls-8" x="381.01" y="0">o</tspan><tspan class="cls-9" x="405.4" y="0">n</tspan><tspan x="429.01" y="0">s</tspan></text>
</svg>